<?xml version="1.0" encoding="UTF-8"?>
<svg id="_레이어_2" data-name="레이어 2" xmlns="http://www.w3.org/2000/svg" viewBox="0 0 261.14 63.36">
  <defs>
    <style>
      .cls-1 {
        fill: #000000;
        stroke-width: 0px;
      }
    </style>
  </defs>
  <g id="_레이어_1-2" data-name="레이어 1">
    <g>
      <path class="cls-1" d="m44.46,53.46c.27,0,.45.18.45.45v9c0,.27-.18.45-.45.45H.45c-.27,0-.45-.18-.45-.45V.45c0-.27.18-.45.45-.45h44.01c.27,0,.45.18.45.45v9c0,.27-.18.45-.45.45H11.25c-.27,0-.45.18-.45.45v15.48c0,.27.18.45.45.45h28.71c.27,0,.45.18.45.45v9c0,.27-.18.45-.45.45H11.25c-.27,0-.45.18-.45.45v16.38c0,.27.18.45.45.45h33.21Z"/>
      <path class="cls-1" d="m104.04,0c.27,0,.45.18.45.45v62.46c0,.27-.18.45-.45.45h-13.41c-.27,0-.54-.27-.63-.45l-24.57-47.34c-.27-.63-.9-.45-.9,0v47.34c0,.27-.18.45-.45.45h-9.99c-.18,0-.36-.18-.36-.45V.45c0-.27.18-.45.45-.45h13.41c.27,0,.45.27.54.45l24.66,47.34c.27.63.9.45.9,0V.45c0-.27.18-.45.45-.45h9.9Z"/>
      <path class="cls-1" d="m137.61,62.91c0,.27-.18.45-.45.45h-9.9c-.27,0-.45-.18-.45-.45V10.35c0-.27-.18-.45-.45-.45h-16.65c-.27,0-.45-.18-.45-.45V.45c0-.27.18-.45.45-.45h45c.27,0,.45.18.45.45v9c0,.27-.18.45-.45.45h-16.65c-.27,0-.45.18-.45.45v52.56Z"/>
      <path class="cls-1" d="m204.38,53.46c.27,0,.45.18.45.45v9c0,.27-.18.45-.45.45h-44.01c-.27,0-.45-.18-.45-.45V.45c0-.27.18-.45.45-.45h44.01c.27,0,.45.18.45.45v9c0,.27-.18.45-.45.45h-33.21c-.27,0-.45.18-.45.45v15.48c0,.27.18.45.45.45h28.71c.27,0,.45.18.45.45v9c0,.27-.18.45-.45.45h-28.71c-.27,0-.45.18-.45.45v16.38c0,.27.18.45.45.45h33.21Z"/>
      <path class="cls-1" d="m249.65,36.63c-.09.09-.09.18,0,.36l11.43,25.74c.18.36-.09.63-.45.63h-10.35c-.18,0-.36-.18-.45-.27l-10.44-23.58c-.18-.36-.45-.45-.72-.45h-13.86c-.27,0-.36.09-.36.36v23.49c0,.27-.18.45-.45.45h-9.9c-.27,0-.45-.18-.45-.45V.45c0-.27.18-.45.45-.45h26.37c10.17,0,18.99,8.55,18.99,19.53,0,7.56-4.05,13.86-9.81,17.1Zm-9.72-7.47c4.59,0,8.82-4.41,8.82-9.63s-4.41-9.63-9.18-9.63h-14.76c-.27,0-.36.18-.36.36v18.45c0,.27.18.45.45.45h15.03Z"/>
    </g>
  </g>
</svg>