<?xml version="1.0" encoding="UTF-8"?>
<svg id="_레이어_2" data-name="레이어 2" xmlns="http://www.w3.org/2000/svg" viewBox="0 0 1027.54 65.16">
  <defs>
    <style>
      .cls-1 {
        fill: #000000;
        stroke-width: 0px;
      }
    </style>
  </defs>
  <g id="_레이어_1-2" data-name="레이어 1">
    <g>
      <path class="cls-1" d="m61.58,53.19c.09.54.81.54.9,0L71.66,1.35c.09-.36.36-.45.54-.45h10.98c.36,0,.54.36.45.63l-12.42,62.28c-.09.27-.27.45-.54.45h-17.28c-.27,0-.45-.09-.54-.45l-10.53-51.93c-.09-.54-.9-.54-.99,0l-10.53,51.93c-.09.27-.18.45-.45.45H12.98c-.18,0-.45-.09-.54-.45L.02,1.53c-.09-.27.09-.63.45-.63h10.98c.18,0,.45.09.54.45l9.27,51.84c.09.54.81.45.9,0L32.6,1.35c.09-.36.36-.45.54-.45h17.37c.18,0,.45.09.54.45l10.53,51.84Z"/>
      <path class="cls-1" d="m99.56,51.21c-.27,0-.54.18-.63.45l-3.87,12.15c-.09.27-.36.45-.54.45h-10.35c-.36,0-.54-.36-.45-.63L104.6,1.35c.09-.27.36-.45.54-.45h14.4c.18,0,.45.18.54.45l20.79,62.28c.09.27-.09.63-.45.63h-10.35c-.18,0-.45-.18-.54-.45l-3.87-12.15c-.09-.27-.36-.45-.63-.45h-25.47Zm2.79-10.35c-.09.27.09.45.36.45h19.26c.27,0,.36-.18.27-.45l-9.45-29.7c-.18-.45-.72-.45-.9,0l-9.54,29.7Z"/>
      <path class="cls-1" d="m197.21.9c.27,0,.45.18.45.45v62.46c0,.27-.18.45-.45.45h-13.41c-.27,0-.54-.27-.63-.45l-24.57-47.34c-.27-.63-.9-.45-.9,0v47.34c0,.27-.18.45-.45.45h-9.99c-.18,0-.36-.18-.36-.45V1.35c0-.27.18-.45.45-.45h13.41c.27,0,.45.27.54.45l24.66,47.34c.27.63.9.45.9,0V1.35c0-.27.18-.45.45-.45h9.9Z"/>
      <path class="cls-1" d="m209.45,64.26c-.27,0-.45-.18-.45-.45V1.35c0-.27.18-.45.45-.45h23.13c18.99.09,28.35,13.41,28.35,32.31s-9.36,31.05-28.35,31.05h-23.13Zm23.13-9.9c10.8,0,17.1-7.47,17.1-21.15s-6.3-22.41-17.1-22.41h-12.42c-.27,0-.36.18-.36.36v42.75c0,.27.18.45.45.45h12.33Z"/>
      <path class="cls-1" d="m314.3,54.36c.27,0,.45.18.45.45v9c0,.27-.18.45-.45.45h-44.01c-.27,0-.45-.18-.45-.45V1.35c0-.27.18-.45.45-.45h44.01c.27,0,.45.18.45.45v9c0,.27-.18.45-.45.45h-33.21c-.27,0-.45.18-.45.45v15.48c0,.27.18.45.45.45h28.71c.27,0,.45.18.45.45v9c0,.27-.18.45-.45.45h-28.71c-.27,0-.45.18-.45.45v16.38c0,.27.18.45.45.45h33.21Z"/>
      <path class="cls-1" d="m359.57,37.53c-.09.09-.09.18,0,.36l11.43,25.74c.18.36-.09.63-.45.63h-10.35c-.18,0-.36-.18-.45-.27l-10.44-23.58c-.18-.36-.45-.45-.72-.45h-13.86c-.27,0-.36.09-.36.36v23.49c0,.27-.18.45-.45.45h-9.9c-.27,0-.45-.18-.45-.45V1.35c0-.27.18-.45.45-.45h26.37c10.17,0,18.99,8.55,18.99,19.53,0,7.56-4.05,13.86-9.81,17.1Zm-9.72-7.47c4.59,0,8.82-4.41,8.82-9.63s-4.41-9.63-9.18-9.63h-14.76c-.27,0-.36.18-.36.36v18.45c0,.27.18.45.45.45h15.03Z"/>
      <path class="cls-1" d="m379.01,64.26c-.27,0-.45-.18-.45-.45V1.35c0-.27.18-.45.45-.45h9.9c.27,0,.45.18.45.45v62.46c0,.27-.18.45-.45.45h-9.9Z"/>
      <path class="cls-1" d="m451,.9c.27,0,.45.18.45.45v62.46c0,.27-.18.45-.45.45h-13.41c-.27,0-.54-.27-.63-.45l-24.57-47.34c-.27-.63-.9-.45-.9,0v47.34c0,.27-.18.45-.45.45h-9.99c-.18,0-.36-.18-.36-.45V1.35c0-.27.18-.45.45-.45h13.41c.27,0,.45.27.54.45l24.66,47.34c.27.63.9.45.9,0V1.35c0-.27.18-.45.45-.45h9.9Z"/>
      <path class="cls-1" d="m484.58,63.81c0,.27-.18.45-.45.45h-9.9c-.27,0-.45-.18-.45-.45V11.25c0-.27-.18-.45-.45-.45h-16.65c-.27,0-.45-.18-.45-.45V1.35c0-.27.18-.45.45-.45h45c.27,0,.45.18.45.45v9c0,.27-.18.45-.45.45h-16.65c-.27,0-.45.18-.45.45v52.56Z"/>
      <path class="cls-1" d="m544.33,64.26c-.27,0-.45-.18-.45-.45v-26.37c0-.27-.18-.36-.36-.36h-25.47c-.27,0-.36.09-.36.36v26.37c0,.27-.18.45-.45.45h-9.9c-.27,0-.45-.18-.45-.45V1.35c0-.27.18-.45.45-.45h9.9c.27,0,.45.18.45.45v25.47c0,.27.09.36.36.36h25.47c.27,0,.36-.09.36-.36V1.35c0-.27.18-.45.45-.45h9.9c.27,0,.45.18.45.45v62.46c0,.27-.18.45-.45.45h-9.9Z"/>
      <path class="cls-1" d="m610.48,54.36c.27,0,.45.18.45.45v9c0,.27-.18.45-.45.45h-44.01c-.27,0-.45-.18-.45-.45V1.35c0-.27.18-.45.45-.45h44.01c.27,0,.45.18.45.45v9c0,.27-.18.45-.45.45h-33.21c-.27,0-.45.18-.45.45v15.48c0,.27.18.45.45.45h28.71c.27,0,.45.18.45.45v9c0,.27-.18.45-.45.45h-28.71c-.27,0-.45.18-.45.45v16.38c0,.27.18.45.45.45h33.21Z"/>
      <path class="cls-1" d="m641.53,63.81c0,.27-.18.45-.45.45h-9.9c-.27,0-.45-.18-.45-.45V11.25c0-.27-.18-.45-.45-.45h-16.65c-.27,0-.45-.18-.45-.45V1.35c0-.27.18-.45.45-.45h45c.27,0,.45.18.45.45v9c0,.27-.18.45-.45.45h-16.65c-.27,0-.45.18-.45.45v52.56Z"/>
      <path class="cls-1" d="m664.3,64.26c-.27,0-.45-.18-.45-.45V1.35c0-.27.18-.45.45-.45h9.9c.27,0,.45.18.45.45v62.46c0,.27-.18.45-.45.45h-9.9Z"/>
      <path class="cls-1" d="m740.08,64.26c-.27,0-.45-.18-.45-.45V11.88c0-.45-.72-.63-.9,0l-11.79,52.11c0,.18-.27.27-.45.27h-16.65c-.18,0-.45-.09-.45-.27l-11.7-52.11c-.18-.63-.9-.45-.9,0v51.93c0,.27-.18.45-.45.45h-9.9c-.27,0-.45-.18-.45-.45V1.35c0-.27.18-.45.45-.45h18.72c.27,0,.54.09.63.45l11.97,51.75c.18.63.72.63.9,0l11.97-51.75c.09-.36.36-.45.54-.45h18.81c.27,0,.45.18.45.45v62.46c0,.27-.18.45-.45.45h-9.9Z"/>
      <path class="cls-1" d="m806.23,54.36c.27,0,.45.18.45.45v9c0,.27-.18.45-.45.45h-44.01c-.27,0-.45-.18-.45-.45V1.35c0-.27.18-.45.45-.45h44.01c.27,0,.45.18.45.45v9c0,.27-.18.45-.45.45h-33.21c-.27,0-.45.18-.45.45v15.48c0,.27.18.45.45.45h28.71c.27,0,.45.18.45.45v9c0,.27-.18.45-.45.45h-28.71c-.27,0-.45.18-.45.45v16.38c0,.27.18.45.45.45h33.21Z"/>
      <path class="cls-1" d="m815.95,64.26c-.27,0-.45-.18-.45-.45v-13.68c0-.27.18-.45.45-.45h13.5c.27,0,.45.18.45.45v13.68c0,.27-.18.45-.45.45h-13.5Z"/>
      <path class="cls-1" d="m879.94,43.56c.09-.27.27-.45.54-.45h10.26c.36,0,.45.18.45.45,0,4.14-5.49,21.6-26.73,21.6-18.99,0-28.35-12.87-28.35-31.95S845.47,0,864.46,0c20.07,0,26.73,16.02,26.73,21.6,0,.27-.09.45-.45.45h-10.35c-.27,0-.45-.18-.54-.45-.9-2.7-3.96-11.7-15.39-11.7-10.8,0-17.1,9.63-17.1,23.31s6.3,22.05,17.1,22.05c11.52,0,14.76-9.45,15.48-11.7Z"/>
      <path class="cls-1" d="m925.66,65.16c-18.99,0-28.53-13.5-28.53-32.58S906.67,0,925.66,0s28.53,13.5,28.53,32.58-9.54,32.58-28.53,32.58Zm17.28-32.58c0-14.13-6.12-22.68-17.28-22.68s-17.28,8.55-17.28,22.68,6.12,22.68,17.28,22.68,17.28-8.55,17.28-22.68Z"/>
      <path class="cls-1" d="m1017.19,64.26c-.27,0-.45-.18-.45-.45V11.88c0-.45-.72-.63-.9,0l-11.79,52.11c0,.18-.27.27-.45.27h-16.65c-.18,0-.45-.09-.45-.27l-11.7-52.11c-.18-.63-.9-.45-.9,0v51.93c0,.27-.18.45-.45.45h-9.9c-.27,0-.45-.18-.45-.45V1.35c0-.27.18-.45.45-.45h18.72c.27,0,.54.09.63.45l11.97,51.75c.18.63.72.63.9,0l11.97-51.75c.09-.36.36-.45.54-.45h18.81c.27,0,.45.18.45.45v62.46c0,.27-.18.45-.45.45h-9.9Z"/>
    </g>
  </g>
</svg>